<svg width="32" height="32" viewBox="0 0 32 32" fill="none" xmlns="http://www.w3.org/2000/svg">
<rect x="0.5" y="0.5" width="31" height="31" rx="15.5" fill="#F0F4FA"/>
<rect x="0.5" y="0.5" width="31" height="31" rx="15.5" stroke="#F3F4F6"/>
<path d="M19.2 9.33334H17.4667C15.3333 9.33334 14 10.6667 14 12.8V15.5H18.1667C18.44 15.5 18.6667 15.7267 18.6667 16C18.6667 16.2733 18.44 16.5 18.1667 16.5H14V19.2C14 21.3333 15.3333 22.6667 17.4667 22.6667H19.1933C21.3267 22.6667 22.66 21.3333 22.66 19.2V12.8C22.6667 10.6667 21.3333 9.33334 19.2 9.33334Z" fill="#1D3557"/>
<path d="M11.04 15.5L12.42 14.12C12.52 14.02 12.5666 13.8933 12.5666 13.7667C12.5666 13.64 12.52 13.5067 12.42 13.4133C12.2266 13.22 11.9066 13.22 11.7133 13.4133L9.47996 15.6467C9.28663 15.84 9.28663 16.16 9.47996 16.3533L11.7133 18.5867C11.9066 18.78 12.2266 18.78 12.42 18.5867C12.6133 18.3933 12.6133 18.0733 12.42 17.88L11.04 16.5H14V15.5H11.04Z" fill="#1D3557"/>
</svg>
