<svg width="32" height="32" viewBox="0 0 32 32" fill="none" xmlns="http://www.w3.org/2000/svg">
<rect x="0.5" y="0.5" width="31" height="31" rx="15.5" fill="#FDEDEE"/>
<rect x="0.5" y="0.5" width="31" height="31" rx="15.5" stroke="#F3F4F6"/>
<path d="M15.9999 17.3333C12.6599 17.3333 9.93994 19.5733 9.93994 22.3333C9.93994 22.52 10.0866 22.6667 10.2733 22.6667H21.7266C21.9133 22.6667 22.0599 22.52 22.0599 22.3333C22.0599 19.5733 19.3399 17.3333 15.9999 17.3333Z" fill="#E63946"/>
<path d="M19.1466 14.9L18.5066 14.26C18.84 13.76 19.0333 13.16 19.0333 12.5133C19.0333 10.7533 17.6066 9.33334 15.8533 9.33334C14.1 9.33334 12.6666 10.76 12.6666 12.5133C12.6666 14.2667 14.0933 15.6933 15.8466 15.6933C16.4933 15.6933 17.0933 15.5 17.5933 15.1667L18.2333 15.8067C18.36 15.9333 18.5266 15.9933 18.6866 15.9933C18.8533 15.9933 19.02 15.9333 19.14 15.8067C19.3933 15.56 19.3933 15.1533 19.1466 14.9Z" fill="#E63946"/>
</svg>
