<svg width="61" height="60" viewBox="0 0 61 60" fill="none" xmlns="http://www.w3.org/2000/svg">
<path d="M30.5 0C24.5666 0 18.7664 1.75947 13.8329 5.05591C8.89943 8.35235 5.05426 13.0377 2.78363 18.5195C0.512999 24.0013 -0.0811016 30.0333 1.07646 35.8527C2.23401 41.6721 5.09123 47.0176 9.28681 51.2132C13.4824 55.4088 18.8279 58.266 24.6473 59.4236C30.4667 60.5811 36.4987 59.987 41.9805 57.7164C47.4623 55.4458 52.1477 51.6006 55.4441 46.6671C58.7405 41.7336 60.5 35.9334 60.5 30C60.5 22.0435 57.3393 14.4129 51.7132 8.7868C46.0871 3.16071 38.4565 0 30.5 0ZM34.5 44C34.5 45.0609 34.0786 46.0783 33.3284 46.8284C32.5783 47.5786 31.5609 48 30.5 48C29.4391 48 28.4217 47.5786 27.6716 46.8284C26.9214 46.0783 26.5 45.0609 26.5 44V30C26.5 28.9391 26.9214 27.9217 27.6716 27.1716C28.4217 26.4214 29.4391 26 30.5 26C31.5609 26 32.5783 26.4214 33.3284 27.1716C34.0786 27.9217 34.5 28.9391 34.5 30V44ZM30.5 22.38C29.6337 22.38 28.7869 22.1231 28.0666 21.6418C27.3463 21.1606 26.7849 20.4765 26.4534 19.6762C26.1219 18.8758 26.0352 17.9951 26.2042 17.1455C26.3732 16.2959 26.7903 15.5154 27.4029 14.9029C28.0154 14.2903 28.7959 13.8732 29.6455 13.7042C30.4952 13.5352 31.3758 13.6219 32.1762 13.9534C32.9765 14.2849 33.6606 14.8463 34.1419 15.5666C34.6231 16.2869 34.88 17.1337 34.88 18C34.88 18.5752 34.7667 19.1447 34.5466 19.6762C34.3265 20.2076 34.0039 20.6904 33.5971 21.0971C33.1904 21.5038 32.7076 21.8265 32.1762 22.0466C31.6448 22.2667 31.0752 22.38 30.5 22.38Z" fill="#F59E0B"/>
</svg>
