<svg width="28" height="28" viewBox="0 0 28 28" fill="none" xmlns="http://www.w3.org/2000/svg">
<path d="M8.226 6.57553C7.77039 6.11992 7.0317 6.11992 6.57608 6.57553C6.12047 7.03115 6.12047 7.76984 6.57608 8.22545L12.3508 14.0002L6.57608 19.7749C6.12047 20.2305 6.12047 20.9692 6.57608 21.4248C7.0317 21.8804 7.77039 21.8804 8.226 21.4248L14.0007 15.6501L19.7754 21.4248C20.231 21.8804 20.9697 21.8804 21.4253 21.4248C21.8809 20.9692 21.8809 20.2305 21.4253 19.7749L15.6506 14.0002L21.4253 8.22545C21.8809 7.76984 21.8809 7.03115 21.4253 6.57553C20.9697 6.11992 20.231 6.11992 19.7754 6.57553L14.0007 12.3502L8.226 6.57553Z" fill="#475367"/>
</svg>
