<svg width="133" height="97" viewBox="0 0 133 97" fill="none" xmlns="http://www.w3.org/2000/svg">
<path d="M78.5001 30.4187C47.2309 30.4187 21.7838 55.8658 21.7838 87.135C21.7838 118.404 47.2309 143.917 78.5001 143.917C109.769 143.917 135.216 118.47 135.216 87.2004C135.216 55.9312 109.769 30.4187 78.5001 30.4187ZM83.4063 85.0417C83.4063 87.7237 81.1821 89.9479 78.5001 89.9479C75.818 89.9479 73.5938 87.7237 73.5938 85.0417V52.3333C73.5938 49.6512 75.818 47.4271 78.5001 47.4271C81.1821 47.4271 83.4063 49.6512 83.4063 52.3333V85.0417Z" fill="#F2F9F1"/>
<path d="M97.4054 22.5687H59.5945C56.9779 22.5687 54.8845 20.4754 54.8845 17.8587C54.8845 15.2421 56.9779 13.0833 59.5945 13.0833H97.4054C100.022 13.0833 102.115 15.1767 102.115 17.7933C102.115 20.41 100.022 22.5687 97.4054 22.5687Z" fill="#F2F9F1"/>
</svg>
