<svg width="16" height="16" viewBox="0 0 16 16" fill="none" xmlns="http://www.w3.org/2000/svg">
<g clip-path="url(#clip0_123_5424)">
<path d="M6.5 9H6V11.2C6 13.3333 7.33333 14.6667 9.46667 14.6667H11.1933C13.3267 14.6667 14.66 13.3333 14.66 11.2V4.79999C14.6667 2.66666 13.3333 1.33333 11.2 1.33333H9.46667C7.33333 1.33333 6 2.66666 6 4.79999V7H6.5M6.5 9V11.2C6.5 12.1612 6.79826 12.8911 7.28689 13.3798C7.77552 13.8684 8.50545 14.1667 9.46667 14.1667H11.1933C12.1546 14.1667 12.8845 13.8684 13.3731 13.3798C13.8617 12.8911 14.16 12.1612 14.16 11.2V4.79999V4.79843C14.163 3.8376 13.8663 3.1082 13.3787 2.61997C12.891 2.13163 12.1613 1.83333 11.2 1.83333H9.46667C8.50545 1.83333 7.77552 2.13159 7.28689 2.62021C6.79826 3.10884 6.5 3.83877 6.5 4.79999V7M6.5 9V8.5H10.1667C10.44 8.5 10.6667 8.27333 10.6667 8C10.6667 7.72666 10.44 7.5 10.1667 7.5H6.5V7M6.5 9H10.1667C10.7161 9 11.1667 8.54947 11.1667 8C11.1667 7.45052 10.7161 7 10.1667 7H6.5" stroke="#E63946"/>
<mask id="path-2-inside-1_123_5424" fill="white">
<path d="M3.03996 7.49999L4.41996 6.11999C4.51996 6.01999 4.56663 5.89333 4.56663 5.76666C4.56663 5.63999 4.51996 5.50666 4.41996 5.41333C4.22663 5.21999 3.90663 5.21999 3.71329 5.41333L1.47996 7.64666C1.28663 7.83999 1.28663 8.15999 1.47996 8.35333L3.71329 10.5867C3.90663 10.78 4.22663 10.78 4.41996 10.5867C4.61329 10.3933 4.61329 10.0733 4.41996 9.87999L3.03996 8.49999H5.99996V7.49999H3.03996Z"/>
</mask>
<path d="M4.41996 6.11999L5.12707 6.8271V6.8271L4.41996 6.11999ZM4.41996 5.41333L3.71285 6.12043L3.72504 6.13262L3.73764 6.14438L4.41996 5.41333ZM3.71329 5.41333L3.00619 4.70622V4.70622L3.71329 5.41333ZM1.47996 7.64666L2.18707 8.35377H2.18707L1.47996 7.64666ZM1.47996 8.35333L2.18707 7.64622H2.18707L1.47996 8.35333ZM3.71329 10.5867L3.00619 11.2938L3.71329 10.5867ZM4.41996 9.87999L5.12707 9.17289L4.41996 9.87999ZM3.03996 8.49999V7.49999H0.625747L2.33285 9.2071L3.03996 8.49999ZM5.99996 8.49999V9.49999H6.99996V8.49999H5.99996ZM5.99996 7.49999H6.99996V6.49999H5.99996V7.49999ZM3.74707 8.2071L5.12707 6.8271L3.71285 5.41289L2.33285 6.79289L3.74707 8.2071ZM5.12707 6.8271C5.42449 6.52968 5.56663 6.14423 5.56663 5.76666H3.56663C3.56663 5.64242 3.61543 5.51031 3.71285 5.41289L5.12707 6.8271ZM5.56663 5.76666C5.56663 5.41071 5.43746 4.99511 5.10228 4.68227L3.73764 6.14438C3.60246 6.01821 3.56663 5.86927 3.56663 5.76666H5.56663ZM5.12707 4.70622C4.54321 4.12236 3.59005 4.12236 3.00619 4.70622L4.4204 6.12043C4.22321 6.31762 3.91005 6.31762 3.71285 6.12043L5.12707 4.70622ZM3.00619 4.70622L0.772854 6.93955L2.18707 8.35377L4.4204 6.12043L3.00619 4.70622ZM0.772854 6.93955C0.188997 7.52341 0.188997 8.47657 0.772854 9.06043L2.18707 7.64622C2.38426 7.84341 2.38426 8.15657 2.18707 8.35377L0.772854 6.93955ZM0.772854 9.06043L3.00619 11.2938L4.4204 9.87955L2.18707 7.64622L0.772854 9.06043ZM3.00619 11.2938C3.59005 11.8776 4.54321 11.8776 5.12707 11.2938L3.71285 9.87955C3.91005 9.68236 4.22321 9.68236 4.4204 9.87955L3.00619 11.2938ZM5.12707 11.2938C5.71093 10.7099 5.71093 9.75674 5.12707 9.17289L3.71285 10.5871C3.51566 10.3899 3.51566 10.0767 3.71285 9.87955L5.12707 11.2938ZM5.12707 9.17289L3.74707 7.79289L2.33285 9.2071L3.71285 10.5871L5.12707 9.17289ZM3.03996 9.49999H5.99996V7.49999H3.03996V9.49999ZM6.99996 8.49999V7.49999H4.99996V8.49999H6.99996ZM5.99996 6.49999H3.03996V8.49999H5.99996V6.49999Z" fill="#E63946" mask="url(#path-2-inside-1_123_5424)"/>
</g>
<defs>
<clipPath id="clip0_123_5424">
<rect width="16" height="16" fill="white"/>
</clipPath>
</defs>
</svg>
