<svg width="478" height="338" viewBox="0 0 478 338" fill="none" xmlns="http://www.w3.org/2000/svg">
<path d="M239 92.6123C143.798 92.6123 66.3226 170.088 66.3226 265.29C66.3226 360.491 143.798 438.167 239 438.167C334.202 438.167 411.678 360.691 411.678 265.489C411.678 170.287 334.202 92.6123 239 92.6123ZM253.938 258.916C253.938 267.082 247.166 273.854 239 273.854C230.834 273.854 224.063 267.082 224.063 258.916V159.333C224.063 151.167 230.834 144.396 239 144.396C247.166 144.396 253.938 151.167 253.938 159.333V258.916Z" fill="#F0F4FA"/>
<path d="M296.559 68.7127H181.441C173.474 68.7127 167.101 62.3393 167.101 54.3727C167.101 46.406 173.474 39.8335 181.441 39.8335H296.559C304.526 39.8335 310.899 46.2068 310.899 54.1735C310.899 62.1402 304.526 68.7127 296.559 68.7127Z" fill="#F0F4FA"/>
</svg>
