<svg width="32" height="32" viewBox="0 0 32 32" fill="none" xmlns="http://www.w3.org/2000/svg">
<rect width="32" height="32" rx="4" fill="#1D3557"/>
<path d="M19.3538 16.3535L14.3538 21.3535C14.3073 21.4 14.2522 21.4368 14.1915 21.462C14.1308 21.4871 14.0657 21.5001 14 21.5001C13.9343 21.5001 13.8693 21.4871 13.8086 21.462C13.7479 21.4368 13.6927 21.4 13.6463 21.3535C13.5998 21.3071 13.563 21.2519 13.5378 21.1912C13.5127 21.1305 13.4998 21.0655 13.4998 20.9998C13.4998 20.9341 13.5127 20.869 13.5378 20.8083C13.563 20.7476 13.5998 20.6925 13.6463 20.646L18.2932 15.9998L13.6463 11.3535C13.5525 11.2597 13.4998 11.1325 13.4998 10.9998C13.4998 10.8671 13.5525 10.7399 13.6463 10.646C13.7401 10.5522 13.8674 10.4995 14 10.4995C14.1327 10.4995 14.26 10.5522 14.3538 10.646L19.3538 15.646C19.4003 15.6925 19.4372 15.7476 19.4623 15.8083C19.4875 15.869 19.5004 15.9341 19.5004 15.9998C19.5004 16.0655 19.4875 16.1306 19.4623 16.1913C19.4372 16.252 19.4003 16.3071 19.3538 16.3535Z" fill="white"/>
</svg>
