<svg width="271" height="64" viewBox="0 0 271 64" fill="none" xmlns="http://www.w3.org/2000/svg">
<path d="M52.0001 24.6499C47.2201 24.6499 43.3301 28.5399 43.3301 33.3199C43.3301 38.0999 47.2201 41.9999 52.0001 41.9999C56.7801 41.9999 60.6701 38.1099 60.6701 33.3299C60.6701 28.5499 56.7801 24.6499 52.0001 24.6499ZM52.7501 32.9999C52.7501 33.4099 52.4101 33.7499 52.0001 33.7499C51.5901 33.7499 51.2501 33.4099 51.2501 32.9999V27.9999C51.2501 27.5899 51.5901 27.2499 52.0001 27.2499C52.4101 27.2499 52.7501 27.5899 52.7501 27.9999V32.9999Z" fill="#1D3557"/>
<path d="M54.8896 23.45H49.1096C48.7096 23.45 48.3896 23.13 48.3896 22.73C48.3896 22.33 48.7096 22 49.1096 22H54.8896C55.2896 22 55.6096 22.32 55.6096 22.72C55.6096 23.12 55.2896 23.45 54.8896 23.45Z" fill="#1D3557"/>
<path d="M80.136 35.884H77.424V41.5H73.776V24.268H80.136C84.336 24.268 86.952 26.26 86.952 30.004C86.952 33.748 84.336 35.884 80.136 35.884ZM80.112 27.34H77.424V32.812H80.112C82.176 32.812 83.328 31.732 83.328 30.028C83.328 28.324 82.176 27.34 80.112 27.34ZM93.0083 25.708C93.0083 26.836 92.0963 27.676 90.7763 27.676C89.4803 27.676 88.5683 26.836 88.5683 25.708C88.5683 24.532 89.4803 23.692 90.7763 23.692C92.0963 23.692 93.0083 24.532 93.0083 25.708ZM92.4803 41.5H89.1443V28.684H92.4803V41.5ZM101.113 41.74C97.3929 41.74 94.6089 38.812 94.6089 35.092C94.6089 31.348 97.3929 28.444 101.113 28.444C104.833 28.444 107.617 31.348 107.617 35.092C107.617 38.812 104.833 41.74 101.113 41.74ZM101.113 38.788C102.769 38.788 104.185 37.468 104.185 35.092C104.185 32.716 102.769 31.42 101.113 31.42C99.4569 31.42 98.0409 32.716 98.0409 35.092C98.0409 37.468 99.4569 38.788 101.113 38.788ZM117.546 36.1V28.684H120.858V41.5H117.81V39.82C117.114 40.948 115.698 41.74 114.066 41.74C111.498 41.74 109.626 40.18 109.626 36.844V28.684H112.962V36.196C112.962 37.996 113.85 38.788 115.194 38.788C116.394 38.788 117.546 37.828 117.546 36.1ZM134.679 37.396C134.679 40.084 132.639 41.74 128.991 41.74C125.343 41.74 123.303 39.988 123.039 37.132H126.231C126.255 38.452 127.383 39.292 129.039 39.292C130.335 39.292 131.319 38.884 131.319 37.972C131.319 37.156 130.791 36.82 129.567 36.58L127.263 36.148C124.959 35.74 123.567 34.468 123.567 32.476C123.567 30.1 125.607 28.444 128.799 28.444C132.015 28.444 134.223 30.148 134.463 32.908H131.271C131.151 31.66 130.215 30.892 128.799 30.892C127.575 30.892 126.759 31.348 126.759 32.164C126.759 32.932 127.287 33.244 128.439 33.46L130.911 33.916C133.407 34.396 134.679 35.548 134.679 37.396ZM144.877 41.86C140.029 41.86 136.237 37.924 136.237 32.86C136.237 27.82 140.029 23.908 144.877 23.908C149.413 23.908 152.965 26.932 153.565 31.348H149.701C149.293 28.876 147.373 27.172 144.925 27.172C141.973 27.172 139.981 29.5 139.981 32.86C139.981 36.244 141.973 38.596 144.925 38.596C147.373 38.596 149.269 36.868 149.701 34.396H153.565C152.965 38.86 149.413 41.86 144.877 41.86ZM159.184 41.5H155.824V24.268H159.184V41.5ZM167.84 41.74C164.12 41.74 161.336 38.812 161.336 35.092C161.336 31.348 164.12 28.444 167.84 28.444C171.56 28.444 174.344 31.348 174.344 35.092C174.344 38.812 171.56 41.74 167.84 41.74ZM167.84 38.788C169.496 38.788 170.912 37.468 170.912 35.092C170.912 32.716 169.496 31.42 167.84 31.42C166.184 31.42 164.768 32.716 164.768 35.092C164.768 37.468 166.184 38.788 167.84 38.788ZM181.872 41.74C178.176 41.74 175.632 39.004 175.632 35.092C175.632 31.252 178.272 28.444 181.872 28.444C185.208 28.444 187.68 30.7 188.088 34.156H184.584C184.416 32.452 183.384 31.396 181.872 31.396C180.144 31.396 179.04 32.812 179.04 35.092C179.04 37.396 180.12 38.788 181.872 38.788C183.408 38.788 184.392 37.78 184.584 36.028H188.088C187.704 39.556 185.304 41.74 181.872 41.74ZM193.566 41.5H190.23V24.268H193.566V34.108L198.246 28.684H202.086L196.782 34.828L202.71 41.5H198.462L193.566 35.548V41.5Z" fill="#1D3557"/>
</svg>
