<svg width="271" height="64" viewBox="0 0 271 64" fill="none" xmlns="http://www.w3.org/2000/svg">
<mask id="path-1-inside-1_27_1066" fill="white">
<path d="M0 0H271V64H0V0Z"/>
</mask>
<path d="M271 63H0V65H271V63Z" fill="#F3F4F6" mask="url(#path-1-inside-1_27_1066)"/>
<path d="M52 24.65C47.22 24.65 43.33 28.54 43.33 33.32C43.33 38.1 47.22 42 52 42C56.78 42 60.67 38.11 60.67 33.33C60.67 28.55 56.78 24.65 52 24.65ZM52.75 33C52.75 33.41 52.41 33.75 52 33.75C51.59 33.75 51.25 33.41 51.25 33V28C51.25 27.59 51.59 27.25 52 27.25C52.41 27.25 52.75 27.59 52.75 28V33Z" fill="#1D3557"/>
<path d="M54.89 23.45H49.11C48.71 23.45 48.39 23.13 48.39 22.73C48.39 22.33 48.71 22 49.11 22H54.89C55.29 22 55.61 22.32 55.61 22.72C55.61 23.12 55.29 23.45 54.89 23.45Z" fill="#1D3557"/>
<path d="M80.712 24.66C81.928 24.66 82.968 24.868 83.832 25.284C84.696 25.684 85.36 26.268 85.824 27.036C86.304 27.788 86.544 28.7 86.544 29.772C86.544 30.844 86.304 31.764 85.824 32.532C85.36 33.284 84.696 33.868 83.832 34.284C82.968 34.684 81.928 34.884 80.712 34.884H77.376V40.5H74.064V24.66H80.712ZM80.208 32.268C81.2 32.268 81.944 32.06 82.44 31.644C82.936 31.212 83.184 30.588 83.184 29.772C83.184 28.94 82.936 28.316 82.44 27.9C81.944 27.484 81.2 27.276 80.208 27.276H77.376V32.268H80.208ZM90.8996 26.772C90.2116 26.772 89.6996 26.628 89.3636 26.34C89.0276 26.036 88.8596 25.596 88.8596 25.02C88.8596 24.428 89.0276 23.988 89.3636 23.7C89.6996 23.396 90.2116 23.244 90.8996 23.244C91.5876 23.244 92.0996 23.396 92.4356 23.7C92.7716 23.988 92.9396 24.428 92.9396 25.02C92.9396 25.596 92.7716 26.036 92.4356 26.34C92.0996 26.628 91.5876 26.772 90.8996 26.772ZM92.5316 28.5V40.5H89.2436V28.5H92.5316ZM101.489 28.26C102.705 28.26 103.769 28.508 104.681 29.004C105.609 29.5 106.329 30.212 106.841 31.14C107.369 32.068 107.633 33.188 107.633 34.5C107.633 35.796 107.369 36.916 106.841 37.86C106.329 38.788 105.609 39.5 104.681 39.996C103.769 40.492 102.705 40.74 101.489 40.74C100.289 40.74 99.2251 40.492 98.2971 39.996C97.3691 39.5 96.6411 38.788 96.1131 37.86C95.6011 36.916 95.3451 35.796 95.3451 34.5C95.3451 33.188 95.6011 32.068 96.1131 31.14C96.6411 30.212 97.3691 29.5 98.2971 29.004C99.2251 28.508 100.289 28.26 101.489 28.26ZM101.489 30.708C100.881 30.708 100.361 30.852 99.9291 31.14C99.5131 31.412 99.1931 31.828 98.9691 32.388C98.7451 32.948 98.6331 33.652 98.6331 34.5C98.6331 35.348 98.7451 36.052 98.9691 36.612C99.1931 37.172 99.5131 37.596 99.9291 37.884C100.361 38.156 100.881 38.292 101.489 38.292C102.081 38.292 102.585 38.156 103.001 37.884C103.433 37.596 103.761 37.172 103.985 36.612C104.209 36.052 104.321 35.348 104.321 34.5C104.321 33.652 104.209 32.948 103.985 32.388C103.761 31.828 103.433 31.412 103.001 31.14C102.585 30.852 102.081 30.708 101.489 30.708ZM114.56 40.74C113.76 40.74 113.04 40.596 112.4 40.308C111.76 40.02 111.248 39.564 110.864 38.94C110.496 38.3 110.312 37.476 110.312 36.468V28.5H113.6V35.676C113.6 36.604 113.792 37.252 114.176 37.62C114.56 37.972 115.112 38.148 115.832 38.148C116.168 38.148 116.496 38.092 116.816 37.98C117.136 37.852 117.416 37.66 117.656 37.404C117.912 37.148 118.112 36.82 118.256 36.42C118.4 36.004 118.472 35.516 118.472 34.956V28.5H121.76V40.5H118.832L118.712 38.412C118.312 39.212 117.76 39.804 117.056 40.188C116.368 40.556 115.536 40.74 114.56 40.74ZM130.02 40.74C128.804 40.74 127.692 40.524 126.684 40.092C125.692 39.66 124.884 39.052 124.26 38.268L126.156 36.348C126.54 36.924 127.052 37.396 127.692 37.764C128.332 38.132 129.092 38.316 129.972 38.316C130.596 38.316 131.092 38.228 131.46 38.052C131.844 37.86 132.036 37.564 132.036 37.164C132.036 36.908 131.948 36.692 131.772 36.516C131.596 36.324 131.244 36.172 130.716 36.06L128.604 35.628C127.212 35.34 126.22 34.908 125.628 34.332C125.052 33.74 124.764 32.98 124.764 32.052C124.764 31.396 124.956 30.78 125.34 30.204C125.74 29.628 126.332 29.164 127.116 28.812C127.9 28.444 128.876 28.26 130.044 28.26C131.244 28.26 132.284 28.452 133.164 28.836C134.06 29.204 134.764 29.756 135.276 30.492L133.308 32.412C132.956 31.852 132.492 31.428 131.916 31.14C131.356 30.836 130.764 30.684 130.14 30.684C129.692 30.684 129.308 30.732 128.988 30.828C128.668 30.924 128.428 31.06 128.268 31.236C128.108 31.396 128.028 31.604 128.028 31.86C128.028 32.116 128.14 32.34 128.364 32.532C128.588 32.708 128.996 32.86 129.588 32.988L132.036 33.492C133.22 33.732 134.068 34.14 134.58 34.716C135.092 35.276 135.348 35.956 135.348 36.756C135.348 37.524 135.14 38.212 134.724 38.82C134.324 39.412 133.724 39.884 132.924 40.236C132.14 40.572 131.172 40.74 130.02 40.74ZM151.866 36.132C151.562 37.156 151.082 38.012 150.426 38.7C149.77 39.388 148.994 39.9 148.098 40.236C147.202 40.572 146.218 40.74 145.146 40.74C143.578 40.74 142.218 40.412 141.066 39.756C139.93 39.1 139.05 38.164 138.426 36.948C137.818 35.732 137.514 34.276 137.514 32.58C137.514 30.884 137.818 29.428 138.426 28.212C139.05 26.996 139.93 26.06 141.066 25.404C142.218 24.748 143.562 24.42 145.098 24.42C146.186 24.42 147.17 24.572 148.05 24.876C148.93 25.164 149.674 25.612 150.282 26.22C150.906 26.828 151.362 27.596 151.65 28.524L148.65 29.796C148.378 28.836 147.962 28.156 147.402 27.756C146.842 27.34 146.122 27.132 145.242 27.132C144.378 27.132 143.618 27.34 142.962 27.756C142.322 28.172 141.826 28.788 141.474 29.604C141.122 30.404 140.946 31.396 140.946 32.58C140.946 33.748 141.106 34.74 141.426 35.556C141.762 36.372 142.25 36.988 142.89 37.404C143.53 37.82 144.314 38.028 145.242 38.028C146.106 38.028 146.85 37.796 147.474 37.332C148.114 36.868 148.562 36.164 148.818 35.22L151.866 36.132ZM157.593 23.244V36.804C157.593 37.364 157.689 37.756 157.881 37.98C158.073 38.204 158.393 38.316 158.841 38.316C159.113 38.316 159.337 38.3 159.513 38.268C159.689 38.22 159.913 38.156 160.185 38.076L159.897 40.236C159.625 40.396 159.281 40.516 158.865 40.596C158.465 40.692 158.065 40.74 157.665 40.74C156.497 40.74 155.641 40.46 155.097 39.9C154.569 39.324 154.305 38.412 154.305 37.164V23.244H157.593ZM167.489 28.26C168.705 28.26 169.769 28.508 170.681 29.004C171.609 29.5 172.329 30.212 172.841 31.14C173.369 32.068 173.633 33.188 173.633 34.5C173.633 35.796 173.369 36.916 172.841 37.86C172.329 38.788 171.609 39.5 170.681 39.996C169.769 40.492 168.705 40.74 167.489 40.74C166.289 40.74 165.225 40.492 164.297 39.996C163.369 39.5 162.641 38.788 162.113 37.86C161.601 36.916 161.345 35.796 161.345 34.5C161.345 33.188 161.601 32.068 162.113 31.14C162.641 30.212 163.369 29.5 164.297 29.004C165.225 28.508 166.289 28.26 167.489 28.26ZM167.489 30.708C166.881 30.708 166.361 30.852 165.929 31.14C165.513 31.412 165.193 31.828 164.969 32.388C164.745 32.948 164.633 33.652 164.633 34.5C164.633 35.348 164.745 36.052 164.969 36.612C165.193 37.172 165.513 37.596 165.929 37.884C166.361 38.156 166.881 38.292 167.489 38.292C168.081 38.292 168.585 38.156 169.001 37.884C169.433 37.596 169.761 37.172 169.985 36.612C170.209 36.052 170.321 35.348 170.321 34.5C170.321 33.652 170.209 32.948 169.985 32.388C169.761 31.828 169.433 31.412 169.001 31.14C168.585 30.852 168.081 30.708 167.489 30.708ZM181.832 28.26C182.904 28.26 183.808 28.42 184.544 28.74C185.296 29.044 185.896 29.468 186.344 30.012C186.808 30.54 187.136 31.132 187.328 31.788L184.256 32.892C184.096 32.172 183.824 31.628 183.44 31.26C183.056 30.892 182.536 30.708 181.88 30.708C181.272 30.708 180.752 30.852 180.32 31.14C179.888 31.412 179.56 31.836 179.336 32.412C179.112 32.972 179 33.676 179 34.524C179 35.372 179.112 36.076 179.336 36.636C179.576 37.196 179.912 37.612 180.344 37.884C180.792 38.156 181.312 38.292 181.904 38.292C182.384 38.292 182.792 38.212 183.128 38.052C183.464 37.876 183.736 37.628 183.944 37.308C184.168 36.988 184.32 36.604 184.4 36.156L187.376 37.116C187.2 37.836 186.872 38.468 186.392 39.012C185.912 39.556 185.296 39.98 184.544 40.284C183.792 40.588 182.92 40.74 181.928 40.74C180.696 40.74 179.608 40.492 178.664 39.996C177.72 39.5 176.992 38.788 176.48 37.86C175.968 36.932 175.712 35.812 175.712 34.5C175.712 33.188 175.968 32.068 176.48 31.14C176.992 30.212 177.712 29.5 178.64 29.004C179.568 28.508 180.632 28.26 181.832 28.26ZM202.147 28.5L196.603 34.284L195.955 34.596L192.355 38.46L192.307 34.956L198.403 28.5H202.147ZM193.219 23.244V40.5H189.931V23.244H193.219ZM197.059 32.316L202.435 40.5H198.715L194.803 34.236L197.059 32.316Z" fill="#1D3557"/>
</svg>
