<svg width="201" height="200" viewBox="0 0 201 200" fill="none" xmlns="http://www.w3.org/2000/svg">
<path d="M100.5 38.75C60.6667 38.75 28.25 71.1667 28.25 111C28.25 150.833 60.6667 183.333 100.5 183.333C140.333 183.333 172.75 150.917 172.75 111.083C172.75 71.25 140.333 38.75 100.5 38.75ZM106.75 108.333C106.75 111.75 103.917 114.583 100.5 114.583C97.0833 114.583 94.25 111.75 94.25 108.333V66.6667C94.25 63.25 97.0833 60.4167 100.5 60.4167C103.917 60.4167 106.75 63.25 106.75 66.6667V108.333Z" fill="#F0F4FA"/>
<path d="M124.583 28.75H76.4166C73.0833 28.75 70.4166 26.0833 70.4166 22.75C70.4166 19.4167 73.0833 16.6667 76.4166 16.6667H124.583C127.917 16.6667 130.583 19.3333 130.583 22.6667C130.583 26 127.917 28.75 124.583 28.75Z" fill="#F0F4FA"/>
</svg>
