<svg width="32" height="32" viewBox="0 0 32 32" fill="none" xmlns="http://www.w3.org/2000/svg">
<rect x="0.5" y="0.5" width="31" height="31" rx="3.5" fill="white"/>
<rect x="0.5" y="0.5" width="31" height="31" rx="3.5" stroke="#ECEDEE"/>
<path d="M18.3537 20.646C18.4001 20.6925 18.437 20.7476 18.4621 20.8083C18.4872 20.869 18.5002 20.9341 18.5002 20.9998C18.5002 21.0655 18.4872 21.1305 18.4621 21.1912C18.437 21.2519 18.4001 21.3071 18.3537 21.3535C18.3072 21.4 18.252 21.4368 18.1914 21.462C18.1307 21.4871 18.0656 21.5001 17.9999 21.5001C17.9342 21.5001 17.8692 21.4871 17.8085 21.462C17.7478 21.4368 17.6926 21.4 17.6462 21.3535L12.6462 16.3535C12.5997 16.3071 12.5628 16.252 12.5376 16.1913C12.5125 16.1306 12.4995 16.0655 12.4995 15.9998C12.4995 15.9341 12.5125 15.869 12.5376 15.8083C12.5628 15.7476 12.5997 15.6925 12.6462 15.646L17.6462 10.646C17.74 10.5522 17.8672 10.4995 17.9999 10.4995C18.1326 10.4995 18.2598 10.5522 18.3537 10.646C18.4475 10.7399 18.5002 10.8671 18.5002 10.9998C18.5002 11.1325 18.4475 11.2597 18.3537 11.3535L13.7068 15.9998L18.3537 20.646Z" fill="#6B7280"/>
</svg>
