<svg width="133" height="97" viewBox="0 0 133 97" fill="none" xmlns="http://www.w3.org/2000/svg">
<path d="M78.4999 30.4187C47.2308 30.4187 21.7837 55.8658 21.7837 87.135C21.7837 118.404 47.2308 143.917 78.4999 143.917C109.769 143.917 135.216 118.47 135.216 87.2004C135.216 55.9312 109.769 30.4187 78.4999 30.4187ZM83.4062 85.0417C83.4062 87.7237 81.182 89.9479 78.4999 89.9479C75.8179 89.9479 73.5937 87.7237 73.5937 85.0417V52.3333C73.5937 49.6512 75.8179 47.4271 78.4999 47.4271C81.182 47.4271 83.4062 49.6512 83.4062 52.3333V85.0417Z" fill="#FDEDEE"/>
<path d="M97.4053 22.5687H59.5945C56.9779 22.5687 54.8845 20.4754 54.8845 17.8587C54.8845 15.2421 56.9779 13.0833 59.5945 13.0833H97.4053C100.022 13.0833 102.115 15.1767 102.115 17.7933C102.115 20.41 100.022 22.5687 97.4053 22.5687Z" fill="#FDEDEE"/>
</svg>
