<svg width="243" height="95" viewBox="0 0 243 95" fill="none" xmlns="http://www.w3.org/2000/svg">
<path d="M17.8124 36.5898C10.7171 36.5898 4.94287 42.3641 4.94287 49.4594C4.94287 56.5547 10.7171 62.3438 17.8124 62.3438C24.9077 62.3438 30.6819 56.5695 30.6819 49.4742C30.6819 42.3789 24.9077 36.5898 17.8124 36.5898ZM18.9257 48.9844C18.9257 49.593 18.421 50.0977 17.8124 50.0977C17.2038 50.0977 16.6991 49.593 16.6991 48.9844V41.5625C16.6991 40.9539 17.2038 40.4492 17.8124 40.4492C18.421 40.4492 18.9257 40.9539 18.9257 41.5625V48.9844Z" fill="#1D3557"/>
<path d="M22.1024 34.8086H13.5227C12.929 34.8086 12.454 34.3336 12.454 33.7398C12.454 33.1461 12.929 32.6562 13.5227 32.6562H22.1024C22.6962 32.6562 23.1712 33.1313 23.1712 33.725C23.1712 34.3188 22.6962 34.8086 22.1024 34.8086Z" fill="#1D3557"/>
<path d="M59.5769 52.6637H55.5513V61H50.1363V35.4212H59.5769C65.8112 35.4212 69.6944 38.3781 69.6944 43.9356C69.6944 49.4931 65.8112 52.6637 59.5769 52.6637ZM59.5413 39.9812H55.5513V48.1037H59.5413C62.605 48.1037 64.315 46.5006 64.315 43.9712C64.315 41.4419 62.605 39.9812 59.5413 39.9812ZM78.6841 37.5587C78.6841 39.2331 77.3304 40.48 75.371 40.48C73.4472 40.48 72.0935 39.2331 72.0935 37.5587C72.0935 35.8131 73.4472 34.5662 75.371 34.5662C77.3304 34.5662 78.6841 35.8131 78.6841 37.5587ZM77.9004 61H72.9485V41.9762H77.9004V61ZM90.7145 61.3563C85.1926 61.3563 81.0601 57.01 81.0601 51.4881C81.0601 45.9306 85.1926 41.62 90.7145 41.62C96.2364 41.62 100.369 45.9306 100.369 51.4881C100.369 57.01 96.2364 61.3563 90.7145 61.3563ZM90.7145 56.9744C93.1726 56.9744 95.2745 55.015 95.2745 51.4881C95.2745 47.9612 93.1726 46.0375 90.7145 46.0375C88.2564 46.0375 86.1545 47.9612 86.1545 51.4881C86.1545 55.015 88.2564 56.9744 90.7145 56.9744ZM115.107 52.9844V41.9762H120.023V61H115.499V58.5062C114.466 60.1806 112.364 61.3563 109.941 61.3563C106.13 61.3563 103.351 59.0406 103.351 54.0887V41.9762H108.303V53.1269C108.303 55.7987 109.621 56.9744 111.616 56.9744C113.397 56.9744 115.107 55.5494 115.107 52.9844ZM140.539 54.9081C140.539 58.8981 137.511 61.3563 132.096 61.3563C126.681 61.3563 123.653 58.7556 123.261 54.5162H127.999C128.035 56.4756 129.709 57.7225 132.168 57.7225C134.091 57.7225 135.552 57.1169 135.552 55.7631C135.552 54.5519 134.768 54.0531 132.951 53.6969L129.531 53.0556C126.111 52.45 124.045 50.5619 124.045 47.605C124.045 44.0781 127.073 41.62 131.811 41.62C136.585 41.62 139.863 44.1494 140.219 48.2462H135.481C135.303 46.3937 133.913 45.2537 131.811 45.2537C129.994 45.2537 128.783 45.9306 128.783 47.1419C128.783 48.2819 129.567 48.745 131.277 49.0656L134.946 49.7425C138.651 50.455 140.539 52.165 140.539 54.9081ZM155.676 61.5344C148.48 61.5344 142.851 55.6919 142.851 48.175C142.851 40.6937 148.48 34.8869 155.676 34.8869C162.41 34.8869 167.682 39.3756 168.573 45.9306H162.837C162.231 42.2612 159.381 39.7319 155.748 39.7319C151.366 39.7319 148.409 43.1875 148.409 48.175C148.409 53.1981 151.366 56.6894 155.748 56.6894C159.381 56.6894 162.196 54.1244 162.837 50.455H168.573C167.682 57.0812 162.41 61.5344 155.676 61.5344ZM176.914 61H171.926V35.4212H176.914V61ZM189.762 61.3563C184.24 61.3563 180.107 57.01 180.107 51.4881C180.107 45.9306 184.24 41.62 189.762 41.62C195.284 41.62 199.416 45.9306 199.416 51.4881C199.416 57.01 195.284 61.3563 189.762 61.3563ZM189.762 56.9744C192.22 56.9744 194.322 55.015 194.322 51.4881C194.322 47.9612 192.22 46.0375 189.762 46.0375C187.304 46.0375 185.202 47.9612 185.202 51.4881C185.202 55.015 187.304 56.9744 189.762 56.9744ZM210.592 61.3563C205.106 61.3563 201.329 57.295 201.329 51.4881C201.329 45.7881 205.248 41.62 210.592 41.62C215.544 41.62 219.213 44.9687 219.819 50.0987H214.617C214.368 47.5694 212.836 46.0019 210.592 46.0019C208.027 46.0019 206.388 48.1037 206.388 51.4881C206.388 54.9081 207.991 56.9744 210.592 56.9744C212.872 56.9744 214.332 55.4781 214.617 52.8775H219.819C219.249 58.1144 215.686 61.3563 210.592 61.3563ZM227.95 61H222.998V35.4212H227.95V50.0275L234.897 41.9762H240.597L232.724 51.0962L241.523 61H235.217L227.95 52.165V61Z" fill="#1D3557"/>
</svg>
