<svg width="355" height="345" viewBox="0 0 355 345" fill="none" xmlns="http://www.w3.org/2000/svg">
<path d="M177.502 68.7842C106.797 68.7842 49.2578 126.324 49.2578 197.028C49.2578 267.732 106.797 325.42 177.502 325.42C248.206 325.42 305.745 267.88 305.745 197.176C305.745 126.472 248.206 68.7842 177.502 68.7842ZM188.595 192.295C188.595 198.359 183.566 203.388 177.502 203.388C171.437 203.388 166.408 198.359 166.408 192.295V118.336C166.408 112.272 171.437 107.243 177.502 107.243C183.566 107.243 188.595 112.272 188.595 118.336V192.295Z" fill="#F0F4FA"/>
<path d="M220.25 51.0339H134.754C128.838 51.0339 124.104 46.3005 124.104 40.3839C124.104 34.4672 128.838 29.5859 134.754 29.5859H220.25C226.167 29.5859 230.9 34.3193 230.9 40.2359C230.9 46.1526 226.167 51.0339 220.25 51.0339Z" fill="#F0F4FA"/>
</svg>
